<svg width="106" height="18" viewBox="0 0 106 18" fill="none" xmlns="http://www.w3.org/2000/svg">
<g clip-path="url(#clip0_457_1254)">
<path d="M94.7998 18V6.7C94.7998 6.3 94.4998 5.9 93.9998 5.9C93.5998 5.9 93.1998 6.2 93.1998 6.7V18H88.0998V5.9C88.0998 2.6 90.7998 0 93.9998 0C97.1998 0 99.8998 2.6 99.8998 5.9V18H94.7998ZM85.2998 12.9H87.0998V18H76.8998C74.5998 18 72.7998 16.2 72.7998 13.9V4.1C72.7998 1.8 74.5998 0 76.8998 0H87.0998V5.1H85.2998V12.9ZM80.7998 12.9V5.1H78.9998C78.3998 5.1 77.9998 5.6 77.9998 6.1V11.8C77.9998 12.4 78.4998 12.8 78.9998 12.8L80.7998 12.9ZM38.2998 1.2C38.9998 1.9 39.4998 3 39.4998 4.1V18H34.3998V6.2C34.3998 5.6 33.8998 5.2 33.3998 5.2H27.7998C26.3998 5.2 25.2998 4 25.2998 2.6C25.2998 1.2 26.3998 0 27.7998 0H35.3998C36.4998 0 37.5998 0.5 38.2998 1.2ZM43.0998 0C44.4998 0 45.5998 1.2 45.5998 2.6V18H40.4998V2.6C40.4998 1.2 41.5998 0 43.0998 0ZM66.1998 6.4V2.6C66.1998 1.2 67.2998 0 68.6998 0C70.0998 0 71.1998 1.2 71.1998 2.6V18H66.0998V11.6H64.1998C63.0998 15.3 59.6998 18 55.6998 18C50.7998 18 46.7998 14 46.7998 9C46.7998 4 50.7998 0 55.6998 0C59.6998 0 63.0998 2.7 64.1998 6.4H66.1998ZM55.7998 13.1C58.0998 13.1 59.8998 11.3 59.8998 9C59.8998 6.7 57.9998 4.9 55.7998 4.9C53.5998 4.9 51.6998 6.7 51.6998 9C51.6998 11.3 53.4998 13.1 55.7998 13.1ZM103.4 18C102 18 100.9 16.8 100.9 15.4C100.9 14 102 12.8 103.4 12.8C104.8 12.8 105.9 14 105.9 15.4C105.9 16.8 104.8 18 103.4 18Z" fill="#2393D2"/>
<path d="M19.3008 2.54883C19.3008 1.14115 20.4419 0 21.8496 0V0C23.2573 0 24.3984 1.14115 24.3984 2.54883V18H19.3008V2.54883Z" fill="#2393D2"/>
<path d="M6.93115 2.54883C6.93115 1.14115 8.0723 0 9.47998 0V0C10.8877 0 12.0288 1.14115 12.0288 2.54883V7.15625H6.93115V2.54883Z" fill="#2393D2"/>
<path d="M4.17383 5.09766C2.76615 5.09766 1.625 3.95651 1.625 2.54883V2.54883C1.625 1.14115 2.76615 -4.98812e-08 4.17383 -1.11413e-07L14.8008 -5.75932e-07C16.2085 -6.37463e-07 17.3496 1.14115 17.3496 2.54883V2.54883C17.3496 3.95651 16.2085 5.09766 14.8008 5.09766L4.17383 5.09766Z" fill="#2393D2"/>
<path d="M15.2031 9C15.2031 7.69911 16.2577 6.64453 17.5586 6.64453H19.3008V11.3555H17.5586C16.2577 11.3555 15.2031 10.3009 15.2031 9V9Z" fill="#2393D2"/>
<path d="M7.36572 9.25624C6.66188 8.03715 7.07957 6.47831 8.29866 5.77448V5.77448C9.51774 5.07064 11.0766 5.48833 11.7804 6.70741L15.7649 13.6088C16.4688 14.8279 16.0511 16.3867 14.832 17.0905V17.0905C13.6129 17.7944 12.0541 17.3767 11.3502 16.1576L7.36572 9.25624Z" fill="#2393D2"/>
<path d="M11.6089 9.25624C12.3127 8.03715 11.895 6.47831 10.676 5.77448V5.77448C9.45687 5.07064 7.89803 5.48833 7.19419 6.70741L3.20968 13.6088C2.50584 14.8279 2.92353 16.3867 4.14262 17.0905V17.0905C5.3617 17.7944 6.92054 17.3767 7.62438 16.1576L11.6089 9.25624Z" fill="#2393D2"/>
</g>
<defs>
<clipPath id="clip0_457_1254">
<rect width="106" height="18" fill="white"/>
</clipPath>
</defs>
</svg>
